<svg xmlns="http://www.w3.org/2000/svg" viewBox="0 0 128 128" width="128" height="128">
  <defs>
    <linearGradient id="bg" x1="0%" y1="0%" x2="100%" y2="100%">
      <stop offset="0%" style="stop-color:#667eea;stop-opacity:1" />
      <stop offset="100%" style="stop-color:#764ba2;stop-opacity:1" />
    </linearGradient>
    <linearGradient id="accent" x1="0%" y1="0%" x2="100%" y2="100%">
      <stop offset="0%" style="stop-color:#f093fb;stop-opacity:1" />
      <stop offset="100%" style="stop-color:#f5576c;stop-opacity:1" />
    </linearGradient>
  </defs>
  
  <!-- Background -->
  <rect width="128" height="128" rx="24" fill="url(#bg)"/>
  
  <!-- Form icon -->
  <rect x="24" y="32" width="80" height="64" rx="8" fill="white" opacity="0.95"/>
  
  <!-- Form fields -->
  <rect x="32" y="44" width="48" height="4" rx="2" fill="url(#accent)"/>
  <rect x="32" y="56" width="64" height="4" rx="2" fill="#667eea" opacity="0.6"/>
  <rect x="32" y="68" width="32" height="4" rx="2" fill="#667eea" opacity="0.6"/>
  
  <!-- Submit button -->
  <rect x="72" y="80" width="24" height="8" rx="4" fill="url(#accent)"/>
  
  <!-- Tracking indicators -->
  <circle cx="108" cy="40" r="8" fill="#28a745"/>
  <circle cx="108" cy="40" r="4" fill="white"/>
  
  <!-- Analytics waves -->
  <path d="M 88 24 Q 96 20 104 24 Q 112 28 120 24" stroke="white" stroke-width="2" fill="none" opacity="0.8"/>
  <path d="M 88 16 Q 96 12 104 16 Q 112 20 120 16" stroke="white" stroke-width="2" fill="none" opacity="0.6"/>
</svg>
